<svg width="14" height="14" viewBox="0 0 14 14" fill="none" xmlns="http://www.w3.org/2000/svg">
<path d="M7 0.00585938C3.13438 0.00585938 0 3.14023 0 7.00586C0 10.8715 3.13438 14.0059 7 14.0059C10.8656 14.0059 14 10.8715 14 7.00586C14 3.14023 10.8656 0.00585938 7 0.00585938ZM9.58438 9.66523L8.55313 9.66055L7 7.80898L5.44844 9.65898L4.41563 9.66367C4.34688 9.66367 4.29063 9.60898 4.29063 9.53867C4.29063 9.50898 4.30156 9.48086 4.32031 9.45742L6.35313 7.03555L4.32031 4.61523C4.30143 4.59233 4.29096 4.56366 4.29063 4.53398C4.29063 4.46523 4.34688 4.40898 4.41563 4.40898L5.44844 4.41367L7 6.26523L8.55156 4.41523L9.58281 4.41055C9.65156 4.41055 9.70781 4.46523 9.70781 4.53555C9.70781 4.56523 9.69688 4.59336 9.67813 4.6168L7.64844 7.03711L9.67969 9.45898C9.69844 9.48242 9.70938 9.51055 9.70938 9.54023C9.70938 9.60898 9.65313 9.66523 9.58438 9.66523Z" fill="#F44034"/>
</svg>
