<svg width="14" height="14" viewBox="0 0 14 14" fill="none" xmlns="http://www.w3.org/2000/svg">
<g clip-path="url(#clip0_1257_31481)">
<path d="M7 0.875977C3.61758 0.875977 0.875 3.61855 0.875 7.00098C0.875 10.3834 3.61758 13.126 7 13.126C10.3824 13.126 13.125 10.3834 13.125 7.00098C13.125 3.61855 10.3824 0.875977 7 0.875977ZM7 12.0869C4.1918 12.0869 1.91406 9.80918 1.91406 7.00098C1.91406 4.19277 4.1918 1.91504 7 1.91504C9.8082 1.91504 12.0859 4.19277 12.0859 7.00098C12.0859 9.80918 9.8082 12.0869 7 12.0869Z" fill="#135708"/>
<path d="M7 1.91504C4.1918 1.91504 1.91406 4.19277 1.91406 7.00098C1.91406 9.80918 4.1918 12.0869 7 12.0869C9.8082 12.0869 12.0859 9.80918 12.0859 7.00098C12.0859 4.19277 9.8082 1.91504 7 1.91504ZM9.64414 5.00078L6.76484 8.99297C6.7246 9.04914 6.67155 9.0949 6.61009 9.12648C6.54863 9.15805 6.48052 9.17452 6.41143 9.17452C6.34233 9.17452 6.27423 9.15805 6.21276 9.12648C6.1513 9.0949 6.09825 9.04914 6.05801 8.99297L4.35449 6.63047C4.30254 6.55801 4.35449 6.45684 4.44336 6.45684H5.08457C5.22539 6.45684 5.35664 6.5252 5.43867 6.63867L6.41211 7.98945L8.56133 5.00898C8.64336 4.89414 8.77598 4.82715 8.91543 4.82715H9.55664C9.64551 4.82715 9.69746 4.92832 9.64414 5.00078Z" fill="#F1FAEF"/>
<path d="M9.55682 4.82715H8.91561C8.77616 4.82715 8.64354 4.89414 8.56151 5.00898L6.41229 7.98945L5.43885 6.63867C5.35682 6.5252 5.22557 6.45684 5.08474 6.45684H4.44353C4.35467 6.45684 4.30271 6.55801 4.35467 6.63047L6.05818 8.99297C6.09843 9.04914 6.15148 9.09491 6.21294 9.12648C6.2744 9.15805 6.34251 9.17452 6.4116 9.17452C6.4807 9.17452 6.5488 9.15805 6.61027 9.12648C6.67173 9.09491 6.72478 9.04914 6.76502 8.99297L9.64432 5.00078C9.69765 4.92832 9.64569 4.82715 9.55682 4.82715Z" fill="#135708"/>
</g>
<defs>
<clipPath id="clip0_1257_31481">
<rect width="14" height="14" fill="white" transform="translate(0 0.000976562)"/>
</clipPath>
</defs>
</svg>
