<svg width="14" height="14" viewBox="0 0 14 14" fill="none" xmlns="http://www.w3.org/2000/svg">
<g clip-path="url(#clip0_1257_31484)">
<path d="M7 1.91504C4.1918 1.91504 1.91406 4.19277 1.91406 7.00098C1.91406 9.80918 4.1918 12.0869 7 12.0869C9.8082 12.0869 12.0859 9.80918 12.0859 7.00098C12.0859 4.19277 9.8082 1.91504 7 1.91504ZM9.34883 9.12148C9.36523 9.14199 9.3748 9.1666 9.3748 9.19258C9.3748 9.2541 9.32559 9.30195 9.26543 9.30195L8.36309 9.29785L7.00547 7.6791L5.64785 9.29922L4.74414 9.30332C4.68398 9.30332 4.63477 9.2541 4.63477 9.19395C4.63477 9.16797 4.64434 9.14336 4.66074 9.12285L6.43945 7.00508L4.66074 4.88594C4.64422 4.8659 4.63506 4.84081 4.63477 4.81484C4.63477 4.75332 4.68398 4.70547 4.74414 4.70547L5.64785 4.70957L7.00547 6.32832L8.36445 4.7082L9.2668 4.7041C9.32695 4.7041 9.37617 4.75332 9.37617 4.81348C9.37617 4.83945 9.36797 4.86543 9.35156 4.88457L7.57285 7.00371L9.34883 9.12148Z" fill="#FFF1F0"/>
<path d="M7 0.875977C3.61758 0.875977 0.875 3.61855 0.875 7.00098C0.875 10.3834 3.61758 13.126 7 13.126C10.3824 13.126 13.125 10.3834 13.125 7.00098C13.125 3.61855 10.3824 0.875977 7 0.875977ZM7 12.0869C4.1918 12.0869 1.91406 9.80918 1.91406 7.00098C1.91406 4.19277 4.1918 1.91504 7 1.91504C9.8082 1.91504 12.0859 4.19277 12.0859 7.00098C12.0859 9.80918 9.8082 12.0869 7 12.0869Z" fill="#BC261B"/>
<path d="M9.37617 4.81348C9.37617 4.75332 9.32695 4.7041 9.2668 4.7041L8.36445 4.7082L7.00547 6.32832L5.64785 4.70957L4.74414 4.70547C4.68398 4.70547 4.63477 4.75332 4.63477 4.81484C4.63477 4.84082 4.64434 4.86543 4.66074 4.88594L6.43945 7.00508L4.66074 9.12285C4.64422 9.14289 4.63506 9.16798 4.63477 9.19395C4.63477 9.2541 4.68398 9.30332 4.74414 9.30332L5.64785 9.29922L7.00547 7.6791L8.36309 9.29785L9.26543 9.30195C9.32559 9.30195 9.3748 9.2541 9.3748 9.19258C9.3748 9.1666 9.36523 9.14199 9.34883 9.12148L7.57285 7.00371L9.35156 4.88457C9.36797 4.86543 9.37617 4.83945 9.37617 4.81348Z" fill="#BC261B"/>
</g>
<defs>
<clipPath id="clip0_1257_31484">
<rect width="14" height="14" fill="white" transform="translate(0 0.000976562)"/>
</clipPath>
</defs>
</svg>
