<svg xmlns="http://www.w3.org/2000/svg" width="14" height="14" viewBox="0 0 14 14" fill="none">
  <path fill-rule="evenodd" clip-rule="evenodd" d="M12.8645 1.75078C12.873 1.75123 12.8814 1.75186 12.8899 1.75268L12.834 1.75H1.16732L1.14763 1.75031C1.13554 1.75073 1.12346 1.75152 1.11143 1.75268L1.09929 1.75392C1.08724 1.75532 1.07531 1.75709 1.0636 1.75929C1.05777 1.76034 1.05195 1.76149 1.04616 1.7626C1.03052 1.7659 1.01511 1.76983 0.999834 1.77452C0.992823 1.77662 0.985848 1.77884 0.979152 1.78101C0.964149 1.78612 0.94942 1.79183 0.93527 1.79803C0.928894 1.80079 0.922561 1.80366 0.915922 1.8068C0.811484 1.85676 0.724227 1.93687 0.665608 2.03564C0.661022 2.04335 0.656632 2.05113 0.652381 2.05902C0.646368 2.07028 0.640714 2.08176 0.635438 2.09349C0.630886 2.10356 0.626641 2.11371 0.622667 2.12401C0.619042 2.13344 0.615654 2.14298 0.612539 2.15255C0.608434 2.16515 0.604775 2.17784 0.60156 2.19066C0.5992 2.20005 0.597068 2.20952 0.595138 2.21913C0.59282 2.23078 0.590865 2.24248 0.589325 2.25408C0.587799 2.26531 0.586594 2.27664 0.585717 2.28806L0.583986 2.33333V11.0833L0.587911 11.1514C0.621607 11.4415 0.868165 11.6667 1.16732 11.6667H7.00065C7.15529 11.6667 7.28065 11.5413 7.28065 11.3867V10.78C7.28065 10.6254 7.15529 10.5 7.00065 10.5H1.75065L1.75065 3.5L6.65065 7.175L6.71505 7.217C6.91432 7.329 7.16399 7.315 7.35065 7.175L12.2507 3.5L12.2507 6.70833C12.2507 6.86297 12.376 6.98833 12.5307 6.98833H13.1373C13.292 6.98833 13.4173 6.86297 13.4173 6.70833V2.33333L13.4172 2.32085C13.417 2.31129 13.4166 2.30173 13.4159 2.29218L13.4134 2.2653C13.413 2.26155 13.4125 2.25781 13.412 2.25421C13.4104 2.24248 13.4085 2.23078 13.4061 2.21909C13.4042 2.20952 13.4021 2.20005 13.3997 2.1906C13.3965 2.17784 13.3929 2.16515 13.3888 2.15264C13.3857 2.14298 13.3823 2.13344 13.3786 2.12395C13.3747 2.11371 13.3704 2.10356 13.3659 2.09345C13.3606 2.08176 13.3549 2.07028 13.3489 2.05898C13.3445 2.05079 13.3399 2.04268 13.3351 2.03464L13.3007 1.98333C13.2991 1.98127 13.2975 1.97922 13.2963 1.97754C13.2406 1.90533 13.1684 1.84653 13.085 1.80665C13.0787 1.80366 13.0724 1.80079 13.0663 1.7981C13.0519 1.79183 13.0372 1.78612 13.0224 1.7812C13.0155 1.77884 13.0085 1.77662 13.0013 1.77436C12.9862 1.76983 12.9708 1.7659 12.9552 1.76272C12.9499 1.7616 12.9446 1.76056 12.9394 1.75953L12.9378 1.75921C12.9138 1.75491 12.8894 1.75207 12.8645 1.75078ZM2.91732 2.91667H11.084L7.00065 5.97917L2.91732 2.91667Z" fill="#3E34CA"/>
  <mask id="path-2-outside-1_2105_398888" maskUnits="userSpaceOnUse" x="7.34375" y="6.57397" width="6" height="6" fill="black">
    <rect fill="white" x="7.34375" y="6.57397" width="6" height="6"/>
    <path d="M8.39113 10.086H8.76783C8.79389 10.086 8.81522 10.0646 8.81522 10.0386V8.52604H11.9461V8.95616C11.9461 8.96741 11.9496 8.97808 11.9567 8.98696C11.9607 8.99208 11.9657 8.99636 11.9713 8.99955C11.977 9.00274 11.9832 9.00478 11.9897 9.00555C11.9961 9.00632 12.0026 9.00581 12.0089 9.00404C12.0151 9.00227 12.021 8.99929 12.026 8.99526L12.8748 8.32875C12.9003 8.29913 12.8961 8.26773 12.8748 8.25055L12.026 7.58464C12.0173 7.57765 12.0064 7.57389 11.9952 7.57398C11.968 7.57398 11.9455 7.59649 11.9455 7.62374V8.05386H8.76842C8.53447 8.05386 8.34375 8.24463 8.34375 8.47924V10.0386C8.34375 10.0646 8.36507 10.086 8.39113 10.086ZM12.8452 9.612H12.4685C12.4424 9.612 12.4211 9.63332 12.4211 9.65939V11.1719H9.29024V10.7418C9.29024 10.7305 9.28668 10.7199 9.27957 10.711C9.27558 10.7059 9.27062 10.7016 9.26497 10.6984C9.25932 10.6952 9.25309 10.6932 9.24665 10.6924C9.24021 10.6916 9.23368 10.6921 9.22744 10.6939C9.22119 10.6957 9.21536 10.6987 9.21028 10.7027L8.36152 11.3692C8.33605 11.3988 8.3402 11.4302 8.36152 11.4474L9.21028 12.1133C9.21916 12.1204 9.22982 12.124 9.24107 12.124C9.26832 12.124 9.29083 12.1015 9.29083 12.0742V11.6441H12.4691C12.703 11.6441 12.8938 11.4533 12.8938 11.2187V9.65939C12.8926 9.63332 12.8712 9.612 12.8452 9.612Z"/>
  </mask>
  <path d="M8.39113 10.086H8.76783C8.79389 10.086 8.81522 10.0646 8.81522 10.0386V8.52604H11.9461V8.95616C11.9461 8.96741 11.9496 8.97808 11.9567 8.98696C11.9607 8.99208 11.9657 8.99636 11.9713 8.99955C11.977 9.00274 11.9832 9.00478 11.9897 9.00555C11.9961 9.00632 12.0026 9.00581 12.0089 9.00404C12.0151 9.00227 12.021 8.99929 12.026 8.99526L12.8748 8.32875C12.9003 8.29913 12.8961 8.26773 12.8748 8.25055L12.026 7.58464C12.0173 7.57765 12.0064 7.57389 11.9952 7.57398C11.968 7.57398 11.9455 7.59649 11.9455 7.62374V8.05386H8.76842C8.53447 8.05386 8.34375 8.24463 8.34375 8.47924V10.0386C8.34375 10.0646 8.36507 10.086 8.39113 10.086ZM12.8452 9.612H12.4685C12.4424 9.612 12.4211 9.63332 12.4211 9.65939V11.1719H9.29024V10.7418C9.29024 10.7305 9.28668 10.7199 9.27957 10.711C9.27558 10.7059 9.27062 10.7016 9.26497 10.6984C9.25932 10.6952 9.25309 10.6932 9.24665 10.6924C9.24021 10.6916 9.23368 10.6921 9.22744 10.6939C9.22119 10.6957 9.21536 10.6987 9.21028 10.7027L8.36152 11.3692C8.33605 11.3988 8.3402 11.4302 8.36152 11.4474L9.21028 12.1133C9.21916 12.1204 9.22982 12.124 9.24107 12.124C9.26832 12.124 9.29083 12.1015 9.29083 12.0742V11.6441H12.4691C12.703 11.6441 12.8938 11.4533 12.8938 11.2187V9.65939C12.8926 9.63332 12.8712 9.612 12.8452 9.612Z" fill="#3E34CA"/>
  <path d="M8.81522 8.52604V8.33004H8.61922V8.52604H8.81522ZM11.9461 8.52604H12.1421V8.33004H11.9461V8.52604ZM11.9567 8.98696L12.1113 8.86643L12.1098 8.86454L11.9567 8.98696ZM12.026 8.99526L11.905 8.84111L11.9043 8.84167L12.026 8.99526ZM12.8748 8.32875L12.9958 8.48291L13.0109 8.47107L13.0234 8.45654L12.8748 8.32875ZM12.8748 8.25055L12.9978 8.09792L12.9958 8.09635L12.8748 8.25055ZM12.026 7.58464L11.9036 7.73771L11.9051 7.73884L12.026 7.58464ZM11.9952 7.57398V7.76998L11.9968 7.76997L11.9952 7.57398ZM11.9455 8.05386V8.24986H12.1415V8.05386H11.9455ZM12.4211 11.1719V11.3679H12.6171V11.1719H12.4211ZM9.29024 11.1719H9.09424V11.3679H9.29024V11.1719ZM9.27957 10.711L9.125 10.8315L9.12651 10.8334L9.27957 10.711ZM9.21028 10.7027L9.33133 10.8568L9.33204 10.8563L9.21028 10.7027ZM8.36152 11.3692L8.24047 11.215L8.22539 11.2269L8.2129 11.2414L8.36152 11.3692ZM8.36152 11.4474L8.23853 11.6L8.24053 11.6016L8.36152 11.4474ZM9.21028 12.1133L9.33274 11.9603L9.33126 11.9591L9.21028 12.1133ZM9.29083 11.6441V11.4481H9.09483V11.6441H9.29083ZM12.8938 9.65939H13.09L13.0895 9.65049L12.8938 9.65939ZM8.39113 10.282H8.76783V9.88995H8.39113V10.282ZM8.76783 10.282C8.90219 10.282 9.01122 10.1728 9.01122 10.0386H8.61922C8.61922 9.95643 8.6856 9.88995 8.76783 9.88995V10.282ZM9.01122 10.0386V8.52604H8.61922V10.0386H9.01122ZM8.81522 8.72204H11.9461V8.33004H8.81522V8.72204ZM11.7501 8.52604V8.95616H12.1421V8.52604H11.7501ZM11.7501 8.95616C11.7501 9.00993 11.7676 9.06423 11.8037 9.10938L12.1098 8.86454C12.1317 8.89192 12.1421 8.9249 12.1421 8.95616H11.7501ZM11.8022 9.10749C11.8221 9.133 11.8468 9.15433 11.875 9.17024L12.0677 8.82886C12.0846 8.83839 12.0994 8.85116 12.1113 8.86644L11.8022 9.10749ZM11.875 9.17024C11.9032 9.18614 11.9342 9.19631 11.9664 9.20016L12.013 8.81094C12.0322 8.81324 12.0508 8.81933 12.0677 8.82886L11.875 9.17024ZM11.9664 9.20016C11.9985 9.204 12.0311 9.20145 12.0622 9.19264L11.9555 8.81544C11.9742 8.81016 11.9937 8.80863 12.013 8.81094L11.9664 9.20016ZM12.0622 9.19264C12.0934 9.18383 12.1224 9.16895 12.1478 9.14885L11.9043 8.84167C11.9195 8.82963 11.9369 8.82071 11.9555 8.81544L12.0622 9.19264ZM12.1471 9.14941L12.9958 8.48291L12.7537 8.1746L11.905 8.84111L12.1471 9.14941ZM13.0234 8.45654C13.062 8.41169 13.0909 8.34971 13.0882 8.27758C13.0854 8.20462 13.0505 8.14044 12.9978 8.09793L12.7518 8.40317C12.7204 8.37784 12.6982 8.33795 12.6965 8.2924C12.6948 8.24767 12.7131 8.2162 12.7262 8.20097L13.0234 8.45654ZM12.9958 8.09635L12.147 7.43044L11.9051 7.73884L12.7538 8.40476L12.9958 8.09635ZM12.1485 7.43158C12.1046 7.39646 12.0499 7.37753 11.9937 7.37798L11.9968 7.76997C11.963 7.77024 11.93 7.75884 11.9036 7.7377L12.1485 7.43158ZM11.9952 7.37798C11.8597 7.37798 11.7495 7.48829 11.7495 7.62374H12.1415C12.1415 7.70469 12.0763 7.76998 11.9952 7.76998V7.37798ZM11.7495 7.62374V8.05386H12.1415V7.62374H11.7495ZM11.9455 7.85786H8.76842V8.24986H11.9455V7.85786ZM8.76842 7.85786C8.426 7.85786 8.14775 8.13661 8.14775 8.47924H8.53975C8.53975 8.35265 8.64294 8.24986 8.76842 8.24986V7.85786ZM8.14775 8.47924V10.0386H8.53975V8.47924H8.14775ZM8.14775 10.0386C8.14775 10.1728 8.25678 10.282 8.39113 10.282V9.88995C8.47337 9.88995 8.53975 9.95643 8.53975 10.0386H8.14775ZM12.8452 9.416H12.4685V9.808H12.8452V9.416ZM12.4685 9.416C12.3341 9.416 12.2251 9.52513 12.2251 9.65939H12.6171C12.6171 9.74152 12.5507 9.808 12.4685 9.808V9.416ZM12.2251 9.65939V11.1719H12.6171V9.65939H12.2251ZM12.4211 10.9759H9.29024V11.3679H12.4211V10.9759ZM9.48624 11.1719V10.7418H9.09424V11.1719H9.48624ZM9.48624 10.7418C9.48624 10.688 9.46876 10.6337 9.43264 10.5886L9.12651 10.8334C9.10461 10.806 9.09424 10.7731 9.09424 10.7418H9.48624ZM9.43414 10.5905C9.41424 10.5649 9.38949 10.5436 9.36131 10.5277L9.16863 10.8691C9.15175 10.8596 9.13693 10.8468 9.12501 10.8315L9.43414 10.5905ZM9.36131 10.5277C9.33313 10.5118 9.30208 10.5016 9.26994 10.4978L9.22336 10.887C9.20411 10.8847 9.18551 10.8786 9.16863 10.8691L9.36131 10.5277ZM9.26994 10.4978C9.23781 10.4939 9.20523 10.4965 9.1741 10.5053L9.28078 10.8825C9.26213 10.8878 9.24261 10.8893 9.22336 10.887L9.26994 10.4978ZM9.1741 10.5053C9.14296 10.5141 9.11387 10.529 9.08851 10.5491L9.33204 10.8563C9.31685 10.8683 9.29942 10.8772 9.28078 10.8825L9.1741 10.5053ZM9.08922 10.5485L8.24047 11.215L8.48257 11.5233L9.33133 10.8568L9.08922 10.5485ZM8.2129 11.2414C8.17434 11.2863 8.14538 11.3482 8.14811 11.4204C8.15087 11.4933 8.18578 11.5575 8.23854 11.6L8.48449 11.2948C8.51593 11.3201 8.53811 11.36 8.53983 11.4056C8.54152 11.4503 8.52323 11.4818 8.51014 11.497L8.2129 11.2414ZM8.24053 11.6016L9.08929 12.2675L9.33126 11.9591L8.4825 11.2932L8.24053 11.6016ZM9.08782 12.2663C9.13297 12.3025 9.18728 12.32 9.24107 12.32V11.928C9.27236 11.928 9.30535 11.9384 9.33274 11.9603L9.08782 12.2663ZM9.24107 12.32C9.37662 12.32 9.48683 12.2097 9.48683 12.0742H9.09483C9.09483 11.9933 9.16002 11.928 9.24107 11.928V12.32ZM9.48683 12.0742V11.6441H9.09483V12.0742H9.48683ZM9.29083 11.8401H12.4691V11.4481H9.29083V11.8401ZM12.4691 11.8401C12.8115 11.8401 13.0898 11.5613 13.0898 11.2187H12.6978C12.6978 11.3453 12.5946 11.4481 12.4691 11.4481V11.8401ZM13.0898 11.2187V9.65939H12.6978V11.2187H13.0898ZM13.0895 9.65049C13.0838 9.52495 12.9812 9.416 12.8452 9.416V9.808C12.7613 9.808 12.7013 9.7417 12.698 9.66829L13.0895 9.65049Z" fill="#3E34CA" mask="url(#path-2-outside-1_2105_398888)"/>
</svg>