<svg width="14" height="14" viewBox="0 0 14 14" fill="none" xmlns="http://www.w3.org/2000/svg">
<g clip-path="url(#clip0_939_15813)">
<path d="M12.3526 3.50938L8.99014 0.146875C8.89639 0.053125 8.76982 0 8.63701 0H1.99951C1.72295 0 1.49951 0.223437 1.49951 0.5V13.5C1.49951 13.7766 1.72295 14 1.99951 14H11.9995C12.2761 14 12.4995 13.7766 12.4995 13.5V3.86406C12.4995 3.73125 12.4464 3.60313 12.3526 3.50938ZM11.3464 4.09375H8.40576V1.15313L11.3464 4.09375ZM11.3745 12.875H2.62451V1.125H7.34326V4.5C7.34326 4.67405 7.4124 4.84097 7.53547 4.96404C7.65854 5.08711 7.82546 5.15625 7.99951 5.15625H11.3745V12.875ZM7.03232 8.06406L6.0667 6.46406C6.03232 6.40781 5.97139 6.37344 5.90576 6.37344H5.30576C5.26982 6.37344 5.23545 6.38281 5.20576 6.40312C5.11826 6.45781 5.0917 6.57344 5.14795 6.6625L6.43389 8.7L5.13076 10.775C5.11306 10.8035 5.10328 10.8361 5.10243 10.8696C5.10159 10.9031 5.10971 10.9363 5.12596 10.9656C5.14221 10.9949 5.166 11.0193 5.19486 11.0364C5.22373 11.0534 5.25662 11.0624 5.29014 11.0625H5.8292C5.89482 11.0625 5.9542 11.0281 5.98857 10.9734L6.96826 9.3875L7.9417 10.9719C7.97607 11.0281 8.03701 11.0609 8.10108 11.0609H8.68701C8.72295 11.0609 8.75733 11.05 8.78858 11.0312C8.87608 10.975 8.90107 10.8594 8.84482 10.7719L7.53232 8.73438L8.86514 6.66406C8.88318 6.63569 8.89329 6.60299 8.89441 6.56939C8.89553 6.53578 8.88762 6.50249 8.87151 6.47298C8.85539 6.44346 8.83166 6.41881 8.80279 6.40158C8.77391 6.38435 8.74095 6.37517 8.70732 6.375H8.14951C8.08389 6.375 8.02295 6.40937 7.98857 6.46562L7.03232 8.06406Z" fill="#1A1657" fill-opacity="0.85"/>
</g>
<defs>
<clipPath id="clip0_939_15813">
<rect width="14" height="14" fill="white"/>
</clipPath>
</defs>
</svg>
