<svg width="20" height="21" viewBox="0 0 20 21" fill="none" xmlns="http://www.w3.org/2000/svg">
<path d="M17.1445 9.43136H15.6267V4.43136C15.6267 2.85324 14.3477 1.57422 12.7695 1.57422H7.23382C5.65569 1.57422 4.37667 2.85324 4.37667 4.43136V9.43136H2.85882C2.46373 9.43136 2.14453 9.75056 2.14453 10.1456V18.7171C2.14453 19.1122 2.46373 19.4314 2.85882 19.4314H17.1445C17.5396 19.4314 17.8588 19.1122 17.8588 18.7171V10.1456C17.8588 9.75056 17.5396 9.43136 17.1445 9.43136ZM5.98382 4.43136C5.98382 3.74163 6.54409 3.18136 7.23382 3.18136H12.7695C13.4593 3.18136 14.0195 3.74163 14.0195 4.43136V9.43136H5.98382V4.43136ZM16.2517 17.8242H3.75167V11.0385H16.2517V17.8242ZM9.37667 14.7215V15.9046C9.37667 16.0028 9.45703 16.0831 9.55525 16.0831H10.4481C10.5463 16.0831 10.6267 16.0028 10.6267 15.9046V14.7215C10.8109 14.5893 10.9485 14.4019 11.0195 14.1865C11.0905 13.9711 11.0913 13.7387 11.0218 13.5227C10.9523 13.3068 10.8161 13.1185 10.6328 12.9849C10.4495 12.8513 10.2285 12.7794 10.0017 12.7794C9.77485 12.7794 9.55387 12.8513 9.37055 12.9849C9.18723 13.1185 9.05103 13.3068 8.98154 13.5227C8.91206 13.7387 8.91288 13.9711 8.98388 14.1865C9.05489 14.4019 9.19242 14.5893 9.37667 14.7215Z" fill="#BC261B"/>
</svg>
