<svg width="27" height="26" viewBox="0 0 27 26" fill="none" xmlns="http://www.w3.org/2000/svg">
<path d="M14.3367 13.5435H12.6637C13.0029 16.3982 12.3022 19.7552 8.95703 21.582H18.0434C14.6982 19.7549 13.9976 16.3978 14.3367 13.5435Z" fill="#F3B209"/>
<g style="mix-blend-mode:multiply">
<path d="M12.6641 13.5422C12.7452 14.2243 12.7665 14.9355 12.707 15.6471C12.9686 15.6817 13.233 15.7003 13.5007 15.7003C13.7684 15.7003 14.0329 15.6817 14.2945 15.6471C14.2349 14.9351 14.2562 14.2243 14.3374 13.5422H12.6644H12.6641Z" fill="#FFE7A1"/>
</g>
<path d="M22.5815 1.24965C22.5815 8.88352 18.514 15.0723 13.4962 15.0723C8.47837 15.0723 4.41016 8.88352 4.41016 1.24965C4.41016 0.828603 4.42242 0.411568 4.44623 0H22.545C22.5688 0.411568 22.5811 0.828603 22.5811 1.24965H22.5815Z" fill="#F3B209"/>
<g style="mix-blend-mode:multiply">
<path d="M5.87945 1.24965C5.87945 0.828603 5.88991 0.411568 5.90975 0H4.45795C4.43414 0.411568 4.42188 0.828603 4.42188 1.24965C4.42188 8.88315 8.48973 15.072 13.5075 15.0723C9.29464 15.0723 5.87945 8.88352 5.87945 1.24965Z" fill="#F3B209"/>
</g>
<path d="M26.4096 2.99973C26.3356 2.91224 26.2277 2.86157 26.1137 2.86157H22.5254C22.5051 3.1255 22.4806 3.38724 22.4507 3.64643H25.649C24.9823 7.05489 23.1152 9.46452 19.9919 10.9209C19.7141 11.3525 19.4183 11.7571 19.1055 12.1304C20.5959 11.5942 21.8666 10.8888 22.9049 10.0175C24.8347 8.39787 26.0434 6.14354 26.4972 3.31689C26.5156 3.20315 26.4835 3.08722 26.4096 2.99973Z" fill="#F3B209"/>
<path d="M0.592752 2.99973C0.666713 2.91224 0.774588 2.86157 0.888596 2.86157H4.47697C4.49717 3.1255 4.5217 3.38724 4.55165 3.64643H1.35329C2.02002 7.05489 3.88708 9.46452 7.0104 10.9209C7.28821 11.3525 7.58405 11.7571 7.89685 12.1304C6.40645 11.5942 5.13576 10.8888 4.09742 10.0175C2.16758 8.39787 0.958949 6.14354 0.505081 3.31689C0.486681 3.20315 0.518791 3.08722 0.592752 2.99973Z" fill="#F3B209"/>
<g style="mix-blend-mode:soft-light">
<path d="M20.7115 1.85071C20.6332 5.3638 19.8698 8.53713 18.6709 10.8943H17.5117C18.4429 8.53713 19.035 5.36416 19.0963 1.85071H20.7119H20.7115Z" fill="#FBDE93"/>
</g>
<path d="M19.3404 21.5811H7.65561C7.40355 21.5811 7.19922 21.7875 7.19922 22.0422V25.5389C7.19922 25.7936 7.40355 26 7.65561 26H19.3404C19.5924 26 19.7968 25.7936 19.7968 25.5389V22.0422C19.7968 21.7875 19.5924 21.5811 19.3404 21.5811Z" fill="#F3B209"/>
<path d="M19.1719 22.2329V25.3483C19.1719 25.3614 19.1614 25.372 19.1484 25.372H7.84105C7.82806 25.372 7.8176 25.3614 7.8176 25.3483V22.2329C7.8176 22.2198 7.82806 22.2092 7.84105 22.2092H19.1481C19.1611 22.2092 19.1715 22.2198 19.1715 22.2329H19.1719Z" fill="#F3B209"/>
<g style="mix-blend-mode:multiply">
<path d="M8.06522 25.0581C8.04646 25.0581 8.03131 25.0428 8.03131 25.0239V22.2092H7.85813C7.83937 22.2092 7.82422 22.2245 7.82422 22.2435V25.3381C7.82422 25.357 7.83937 25.3724 7.85813 25.3724H19.1446C19.1633 25.3724 19.1785 25.357 19.1785 25.3381V25.0585H8.06522V25.0581Z" fill="#F3B209"/>
</g>
<path d="M16.6815 22.8036H10.3086V24.7787H16.6815V22.8036Z" fill="#F3B209"/>
<path d="M11.8066 22.8036L13.4424 24.7787H10.3086V22.8036H11.8066Z" fill="#F3B209"/>
</svg>
