<svg width="14" height="14" viewBox="0 0 14 14" fill="none" xmlns="http://www.w3.org/2000/svg">
<g clip-path="url(#clip0_1186_99731)">
<path d="M3.02632 10.7505C3.05757 10.7505 3.08882 10.7474 3.12007 10.7427L5.74819 10.2817C5.77944 10.2755 5.80913 10.2614 5.83101 10.238L12.4544 3.61455C12.4689 3.6001 12.4804 3.58293 12.4883 3.56402C12.4961 3.54512 12.5001 3.52486 12.5001 3.50439C12.5001 3.48393 12.4961 3.46367 12.4883 3.44477C12.4804 3.42586 12.4689 3.40869 12.4544 3.39424L9.85757 0.795801C9.82788 0.766113 9.78882 0.750488 9.74663 0.750488C9.70444 0.750488 9.66538 0.766113 9.63569 0.795801L3.01226 7.41924C2.98882 7.44268 2.97476 7.4708 2.96851 7.50205L2.50757 10.1302C2.49237 10.2139 2.4978 10.3 2.52339 10.3812C2.54898 10.4623 2.59397 10.536 2.65444 10.5958C2.75757 10.6958 2.88726 10.7505 3.02632 10.7505ZM4.07944 8.02549L9.74663 2.35986L10.8919 3.50518L5.22476 9.1708L3.83569 9.41611L4.07944 8.02549ZM12.7498 12.063H1.24976C0.973193 12.063 0.749756 12.2864 0.749756 12.563V13.1255C0.749756 13.1942 0.806006 13.2505 0.874756 13.2505H13.1248C13.1935 13.2505 13.2498 13.1942 13.2498 13.1255V12.563C13.2498 12.2864 13.0263 12.063 12.7498 12.063Z" fill="#3E34CA"/>
</g>
<defs>
<clipPath id="clip0_1186_99731">
<rect width="14" height="14" fill="white" transform="translate(0 0.00195312)"/>
</clipPath>
</defs>
</svg>
