<svg width="14" height="14" viewBox="0 0 14 14" fill="none" xmlns="http://www.w3.org/2000/svg">
<g clip-path="url(#clip0_1186_99732)">
<path d="M4.62476 1.87549H4.49976C4.56851 1.87549 4.62476 1.81924 4.62476 1.75049V1.87549H9.37476V1.75049C9.37476 1.81924 9.43101 1.87549 9.49976 1.87549H9.37476V3.00049H10.4998V1.75049C10.4998 1.19893 10.0513 0.750488 9.49976 0.750488H4.49976C3.94819 0.750488 3.49976 1.19893 3.49976 1.75049V3.00049H4.62476V1.87549ZM12.4998 3.00049H1.49976C1.22319 3.00049 0.999756 3.22393 0.999756 3.50049V4.00049C0.999756 4.06924 1.05601 4.12549 1.12476 4.12549H2.06851L2.45444 12.2974C2.47944 12.8302 2.92007 13.2505 3.45288 13.2505H10.5466C11.081 13.2505 11.5201 12.8317 11.5451 12.2974L11.931 4.12549H12.8748C12.9435 4.12549 12.9998 4.06924 12.9998 4.00049V3.50049C12.9998 3.22393 12.7763 3.00049 12.4998 3.00049ZM10.4263 12.1255H3.57319L3.19507 4.12549H10.8044L10.4263 12.1255Z" fill="#BC261B"/>
</g>
<defs>
<clipPath id="clip0_1186_99732">
<rect width="14" height="14" fill="white" transform="translate(0 0.00195312)"/>
</clipPath>
</defs>
</svg>
