<svg width="14" height="14" viewBox="0 0 14 14" fill="none" xmlns="http://www.w3.org/2000/svg">
<path d="M12.2481 8.25049H1.37468C1.30593 8.25049 1.24968 8.30674 1.24968 8.37549V9.31299C1.24968 9.38174 1.30593 9.43799 1.37468 9.43799H10.8309L8.57625 12.2974C8.51218 12.3786 8.57 12.5005 8.67468 12.5005H9.8075C9.88406 12.5005 9.95593 12.4661 10.0044 12.4052L12.6419 9.05986C12.8997 8.73174 12.6669 8.25049 12.2481 8.25049ZM12.6247 4.56299H3.16843L5.42312 1.70361C5.48718 1.62236 5.42937 1.50049 5.32468 1.50049H4.19187C4.11531 1.50049 4.04343 1.53486 3.995 1.5958L1.35749 4.94111C1.09968 5.26924 1.33249 5.75049 1.74968 5.75049H12.6247C12.6934 5.75049 12.7497 5.69424 12.7497 5.62549V4.68799C12.7497 4.61924 12.6934 4.56299 12.6247 4.56299Z" fill="white"/>
</svg>
