<svg width="96" height="55" viewBox="0 0 96 55" fill="none" xmlns="http://www.w3.org/2000/svg">
<mask id="path-1-inside-1_942_166484" fill="white">
<path d="M0 0H96V55H0V0Z"/>
</mask>
<path d="M0 0H96V55H0V0Z" fill="white"/>
<path d="M96 54H0V56H96V54Z" fill="#F1F0FF" mask="url(#path-1-inside-1_942_166484)"/>
<path d="M28.3225 32.8551C28.3672 32.8551 28.4118 32.8506 28.4565 32.8439L32.2109 32.1854C32.2556 32.1765 32.298 32.1564 32.3292 32.1229L41.7913 22.6609C41.812 22.6402 41.8284 22.6157 41.8396 22.5887C41.8508 22.5617 41.8566 22.5327 41.8566 22.5035C41.8566 22.4743 41.8508 22.4453 41.8396 22.4183C41.8284 22.3913 41.812 22.3668 41.7913 22.3461L38.0815 18.6341C38.0391 18.5917 37.9833 18.5693 37.923 18.5693C37.8627 18.5693 37.8069 18.5917 37.7645 18.6341L28.3025 28.0961C28.269 28.1296 28.2489 28.1698 28.24 28.2144L27.5815 31.9689C27.5598 32.0885 27.5675 32.2115 27.6041 32.3274C27.6406 32.4433 27.7049 32.5486 27.7913 32.6341C27.9386 32.7769 28.1239 32.8551 28.3225 32.8551ZM29.827 28.9622L37.923 20.8684L39.5592 22.5046L31.4632 30.5984L29.4788 30.9488L29.827 28.9622ZM42.2132 34.7301H25.7846C25.3895 34.7301 25.0703 35.0492 25.0703 35.4443V36.2479C25.0703 36.3461 25.1507 36.4265 25.2489 36.4265H42.7489C42.8471 36.4265 42.9275 36.3461 42.9275 36.2479V35.4443C42.9275 35.0492 42.6083 34.7301 42.2132 34.7301Z" fill="#3E34CA"/>
<path d="M69.1426 26.4314H57.9819V21.4314C57.9819 20.7416 58.5421 20.1814 59.2319 20.1814H64.7676C65.4573 20.1814 66.0176 20.7416 66.0176 21.4314V22.9492C66.0176 23.0474 66.0979 23.1278 66.1962 23.1278H67.4462C67.5444 23.1278 67.6247 23.0474 67.6247 22.9492V21.4314C67.6247 19.8532 66.3457 18.5742 64.7676 18.5742H59.2319C57.6537 18.5742 56.3747 19.8532 56.3747 21.4314V26.4314H54.8569C54.4618 26.4314 54.1426 26.7506 54.1426 27.1456V35.7171C54.1426 36.1122 54.4618 36.4314 54.8569 36.4314H69.1426C69.5377 36.4314 69.8569 36.1122 69.8569 35.7171V27.1456C69.8569 26.7506 69.5377 26.4314 69.1426 26.4314ZM68.2497 34.8242H55.7497V28.0385H68.2497V34.8242ZM61.3747 31.7215V32.9046C61.3747 33.0028 61.4551 33.0831 61.5533 33.0831H62.4462C62.5444 33.0831 62.6247 33.0028 62.6247 32.9046V31.7215C62.809 31.5893 62.9465 31.4019 63.0175 31.1865C63.0885 30.9711 63.0893 30.7387 63.0199 30.5227C62.9504 30.3068 62.8142 30.1185 62.6308 29.9849C62.4475 29.8513 62.2265 29.7794 61.9997 29.7794C61.7729 29.7794 61.5519 29.8513 61.3686 29.9849C61.1853 30.1185 61.0491 30.3068 60.9796 30.5227C60.9101 30.7387 60.9109 30.9711 60.9819 31.1865C61.0529 31.4019 61.1905 31.5893 61.3747 31.7215Z" fill="#10B116"/>
</svg>
