<svg width="20" height="21" viewBox="0 0 20 21" fill="none" xmlns="http://www.w3.org/2000/svg">
<path d="M17.1429 9.43136H5.98223V4.43136C5.98223 3.74163 6.5425 3.18136 7.23223 3.18136H12.7679C13.4577 3.18136 14.0179 3.74163 14.0179 4.43136V5.94922C14.0179 6.04743 14.0983 6.12779 14.1965 6.12779H15.4465C15.5447 6.12779 15.6251 6.04743 15.6251 5.94922V4.43136C15.6251 2.85324 14.3461 1.57422 12.7679 1.57422H7.23223C5.65411 1.57422 4.37509 2.85324 4.37509 4.43136V9.43136H2.85723C2.46214 9.43136 2.14294 9.75056 2.14294 10.1456V18.7171C2.14294 19.1122 2.46214 19.4314 2.85723 19.4314H17.1429C17.538 19.4314 17.8572 19.1122 17.8572 18.7171V10.1456C17.8572 9.75056 17.538 9.43136 17.1429 9.43136ZM16.2501 17.8242H3.75009V11.0385H16.2501V17.8242ZM9.37509 14.7215V15.9046C9.37509 16.0028 9.45545 16.0831 9.55366 16.0831H10.4465C10.5447 16.0831 10.6251 16.0028 10.6251 15.9046V14.7215C10.8093 14.5893 10.9469 14.4019 11.0179 14.1865C11.0889 13.9711 11.0897 13.7387 11.0202 13.5227C10.9507 13.3068 10.8145 13.1185 10.6312 12.9849C10.4479 12.8513 10.2269 12.7794 10.0001 12.7794C9.77326 12.7794 9.55228 12.8513 9.36896 12.9849C9.18565 13.1185 9.04944 13.3068 8.97996 13.5227C8.91047 13.7387 8.91129 13.9711 8.9823 14.1865C9.0533 14.4019 9.19083 14.5893 9.37509 14.7215Z" fill="#10B116"/>
</svg>
