<svg width="257" height="257" viewBox="0 0 257 257" fill="none" xmlns="http://www.w3.org/2000/svg">
<g clip-path="url(#clip0_5301_17482)">
<path d="M256.5 0.499756H0.5V256.5H256.5V0.499756Z" fill="white"/>
<path d="M24.2241 16.4998H16.5V24.2239H24.2241V16.4998Z" fill="black"/>
<path d="M31.9483 16.4998H24.2241V24.2239H31.9483V16.4998Z" fill="black"/>
<path d="M39.6724 16.4998H31.9483V24.2239H39.6724V16.4998Z" fill="black"/>
<path d="M47.3966 16.4998H39.6724V24.2239H47.3966V16.4998Z" fill="black"/>
<path d="M55.1207 16.4998H47.3966V24.2239H55.1207V16.4998Z" fill="black"/>
<path d="M62.8448 16.4998H55.1207V24.2239H62.8448V16.4998Z" fill="black"/>
<path d="M70.569 16.4998H62.8448V24.2239H70.569V16.4998Z" fill="black"/>
<path d="M86.0172 16.4998H78.2931V24.2239H86.0172V16.4998Z" fill="black"/>
<path d="M101.466 16.4998H93.7414V24.2239H101.466V16.4998Z" fill="black"/>
<path d="M140.086 16.4998H132.362V24.2239H140.086V16.4998Z" fill="black"/>
<path d="M147.81 16.4998H140.086V24.2239H147.81V16.4998Z" fill="black"/>
<path d="M163.259 16.4998H155.534V24.2239H163.259V16.4998Z" fill="black"/>
<path d="M178.707 16.4998H170.983V24.2239H178.707V16.4998Z" fill="black"/>
<path d="M194.155 16.4998H186.431V24.2239H194.155V16.4998Z" fill="black"/>
<path d="M201.879 16.4998H194.155V24.2239H201.879V16.4998Z" fill="black"/>
<path d="M209.603 16.4998H201.879V24.2239H209.603V16.4998Z" fill="black"/>
<path d="M217.328 16.4998H209.603V24.2239H217.328V16.4998Z" fill="black"/>
<path d="M225.052 16.4998H217.328V24.2239H225.052V16.4998Z" fill="black"/>
<path d="M232.776 16.4998H225.052V24.2239H232.776V16.4998Z" fill="black"/>
<path d="M240.5 16.4998H232.776V24.2239H240.5V16.4998Z" fill="black"/>
<path d="M24.2241 24.2239H16.5V31.948H24.2241V24.2239Z" fill="black"/>
<path d="M70.569 24.2239H62.8448V31.948H70.569V24.2239Z" fill="black"/>
<path d="M93.7414 24.2239H86.0172V31.948H93.7414V24.2239Z" fill="black"/>
<path d="M101.466 24.2239H93.7414V31.948H101.466V24.2239Z" fill="black"/>
<path d="M109.19 24.2239H101.466V31.948H109.19V24.2239Z" fill="black"/>
<path d="M116.914 24.2239H109.19V31.948H116.914V24.2239Z" fill="black"/>
<path d="M132.362 24.2239H124.638V31.948H132.362V24.2239Z" fill="black"/>
<path d="M140.086 24.2239H132.362V31.948H140.086V24.2239Z" fill="black"/>
<path d="M194.155 24.2239H186.431V31.948H194.155V24.2239Z" fill="black"/>
<path d="M240.5 24.2239H232.776V31.948H240.5V24.2239Z" fill="black"/>
<path d="M24.2241 31.948H16.5V39.6722H24.2241V31.948Z" fill="black"/>
<path d="M39.6724 31.948H31.9483V39.6722H39.6724V31.948Z" fill="black"/>
<path d="M47.3966 31.948H39.6724V39.6722H47.3966V31.948Z" fill="black"/>
<path d="M55.1207 31.948H47.3966V39.6722H55.1207V31.948Z" fill="black"/>
<path d="M70.569 31.948H62.8448V39.6722H70.569V31.948Z" fill="black"/>
<path d="M101.466 31.948H93.7414V39.6722H101.466V31.948Z" fill="black"/>
<path d="M109.19 31.948H101.466V39.6722H109.19V31.948Z" fill="black"/>
<path d="M116.914 31.948H109.19V39.6722H116.914V31.948Z" fill="black"/>
<path d="M124.638 31.948H116.914V39.6722H124.638V31.948Z" fill="black"/>
<path d="M140.086 31.948H132.362V39.6722H140.086V31.948Z" fill="black"/>
<path d="M147.81 31.948H140.086V39.6722H147.81V31.948Z" fill="black"/>
<path d="M170.983 31.948H163.259V39.6722H170.983V31.948Z" fill="black"/>
<path d="M178.707 31.948H170.983V39.6722H178.707V31.948Z" fill="black"/>
<path d="M194.155 31.948H186.431V39.6722H194.155V31.948Z" fill="black"/>
<path d="M209.603 31.948H201.879V39.6722H209.603V31.948Z" fill="black"/>
<path d="M217.328 31.948H209.603V39.6722H217.328V31.948Z" fill="black"/>
<path d="M225.052 31.948H217.328V39.6722H225.052V31.948Z" fill="black"/>
<path d="M240.5 31.948H232.776V39.6722H240.5V31.948Z" fill="black"/>
<path d="M24.2241 39.6722H16.5V47.3963H24.2241V39.6722Z" fill="black"/>
<path d="M39.6724 39.6722H31.9483V47.3963H39.6724V39.6722Z" fill="black"/>
<path d="M47.3966 39.6722H39.6724V47.3963H47.3966V39.6722Z" fill="black"/>
<path d="M55.1207 39.6722H47.3966V47.3963H55.1207V39.6722Z" fill="black"/>
<path d="M70.569 39.6722H62.8448V47.3963H70.569V39.6722Z" fill="black"/>
<path d="M86.0172 39.6722H78.2931V47.3963H86.0172V39.6722Z" fill="black"/>
<path d="M93.7414 39.6722H86.0172V47.3963H93.7414V39.6722Z" fill="black"/>
<path d="M101.466 39.6722H93.7414V47.3963H101.466V39.6722Z" fill="black"/>
<path d="M109.19 39.6722H101.466V47.3963H109.19V39.6722Z" fill="black"/>
<path d="M124.638 39.6722H116.914V47.3963H124.638V39.6722Z" fill="black"/>
<path d="M147.81 39.6722H140.086V47.3963H147.81V39.6722Z" fill="black"/>
<path d="M170.983 39.6722H163.259V47.3963H170.983V39.6722Z" fill="black"/>
<path d="M194.155 39.6722H186.431V47.3963H194.155V39.6722Z" fill="black"/>
<path d="M209.603 39.6722H201.879V47.3963H209.603V39.6722Z" fill="black"/>
<path d="M217.328 39.6722H209.603V47.3963H217.328V39.6722Z" fill="black"/>
<path d="M225.052 39.6722H217.328V47.3963H225.052V39.6722Z" fill="black"/>
<path d="M240.5 39.6722H232.776V47.3963H240.5V39.6722Z" fill="black"/>
<path d="M24.2241 47.3963H16.5V55.1204H24.2241V47.3963Z" fill="black"/>
<path d="M39.6724 47.3963H31.9483V55.1204H39.6724V47.3963Z" fill="black"/>
<path d="M47.3966 47.3963H39.6724V55.1204H47.3966V47.3963Z" fill="black"/>
<path d="M55.1207 47.3963H47.3966V55.1204H55.1207V47.3963Z" fill="black"/>
<path d="M70.569 47.3963H62.8448V55.1204H70.569V47.3963Z" fill="black"/>
<path d="M124.638 47.3963H116.914V55.1204H124.638V47.3963Z" fill="black"/>
<path d="M132.362 47.3963H124.638V55.1204H132.362V47.3963Z" fill="black"/>
<path d="M140.086 47.3963H132.362V55.1204H140.086V47.3963Z" fill="black"/>
<path d="M155.534 47.3963H147.81V55.1204H155.534V47.3963Z" fill="black"/>
<path d="M194.155 47.3963H186.431V55.1204H194.155V47.3963Z" fill="black"/>
<path d="M209.603 47.3963H201.879V55.1204H209.603V47.3963Z" fill="black"/>
<path d="M217.328 47.3963H209.603V55.1204H217.328V47.3963Z" fill="black"/>
<path d="M225.052 47.3963H217.328V55.1204H225.052V47.3963Z" fill="black"/>
<path d="M240.5 47.3963H232.776V55.1204H240.5V47.3963Z" fill="black"/>
<path d="M24.2241 55.1204H16.5V62.8446H24.2241V55.1204Z" fill="black"/>
<path d="M70.569 55.1204H62.8448V62.8446H70.569V55.1204Z" fill="black"/>
<path d="M86.0172 55.1204H78.2931V62.8446H86.0172V55.1204Z" fill="black"/>
<path d="M93.7414 55.1204H86.0172V62.8446H93.7414V55.1204Z" fill="black"/>
<path d="M101.466 55.1204H93.7414V62.8446H101.466V55.1204Z" fill="black"/>
<path d="M109.19 55.1204H101.466V62.8446H109.19V55.1204Z" fill="black"/>
<path d="M116.914 55.1204H109.19V62.8446H116.914V55.1204Z" fill="black"/>
<path d="M124.638 55.1204H116.914V62.8446H124.638V55.1204Z" fill="black"/>
<path d="M140.086 55.1204H132.362V62.8446H140.086V55.1204Z" fill="black"/>
<path d="M147.81 55.1204H140.086V62.8446H147.81V55.1204Z" fill="black"/>
<path d="M194.155 55.1204H186.431V62.8446H194.155V55.1204Z" fill="black"/>
<path d="M240.5 55.1204H232.776V62.8446H240.5V55.1204Z" fill="black"/>
<path d="M24.2241 62.8446H16.5V70.5687H24.2241V62.8446Z" fill="black"/>
<path d="M31.9483 62.8446H24.2241V70.5687H31.9483V62.8446Z" fill="black"/>
<path d="M39.6724 62.8446H31.9483V70.5687H39.6724V62.8446Z" fill="black"/>
<path d="M47.3966 62.8446H39.6724V70.5687H47.3966V62.8446Z" fill="black"/>
<path d="M55.1207 62.8446H47.3966V70.5687H55.1207V62.8446Z" fill="black"/>
<path d="M62.8448 62.8446H55.1207V70.5687H62.8448V62.8446Z" fill="black"/>
<path d="M70.569 62.8446H62.8448V70.5687H70.569V62.8446Z" fill="black"/>
<path d="M86.0172 62.8446H78.2931V70.5687H86.0172V62.8446Z" fill="black"/>
<path d="M101.466 62.8446H93.7414V70.5687H101.466V62.8446Z" fill="black"/>
<path d="M116.914 62.8446H109.19V70.5687H116.914V62.8446Z" fill="black"/>
<path d="M132.362 62.8446H124.638V70.5687H132.362V62.8446Z" fill="black"/>
<path d="M147.81 62.8446H140.086V70.5687H147.81V62.8446Z" fill="black"/>
<path d="M163.259 62.8446H155.534V70.5687H163.259V62.8446Z" fill="black"/>
<path d="M178.707 62.8446H170.983V70.5687H178.707V62.8446Z" fill="black"/>
<path d="M194.155 62.8446H186.431V70.5687H194.155V62.8446Z" fill="black"/>
<path d="M201.879 62.8446H194.155V70.5687H201.879V62.8446Z" fill="black"/>
<path d="M209.603 62.8446H201.879V70.5687H209.603V62.8446Z" fill="black"/>
<path d="M217.328 62.8446H209.603V70.5687H217.328V62.8446Z" fill="black"/>
<path d="M225.052 62.8446H217.328V70.5687H225.052V62.8446Z" fill="black"/>
<path d="M232.776 62.8446H225.052V70.5687H232.776V62.8446Z" fill="black"/>
<path d="M240.5 62.8446H232.776V70.5687H240.5V62.8446Z" fill="black"/>
<path d="M93.7414 70.5687H86.0172V78.2929H93.7414V70.5687Z" fill="black"/>
<path d="M132.362 70.5687H124.638V78.2929H132.362V70.5687Z" fill="black"/>
<path d="M155.534 70.5687H147.81V78.2929H155.534V70.5687Z" fill="black"/>
<path d="M163.259 70.5687H155.534V78.2929H163.259V70.5687Z" fill="black"/>
<path d="M170.983 70.5687H163.259V78.2929H170.983V70.5687Z" fill="black"/>
<path d="M178.707 70.5687H170.983V78.2929H178.707V70.5687Z" fill="black"/>
<path d="M62.8448 78.2929H55.1207V86.017H62.8448V78.2929Z" fill="black"/>
<path d="M70.569 78.2929H62.8448V86.017H70.569V78.2929Z" fill="black"/>
<path d="M86.0172 78.2929H78.2931V86.017H86.0172V78.2929Z" fill="black"/>
<path d="M93.7414 78.2929H86.0172V86.017H93.7414V78.2929Z" fill="black"/>
<path d="M109.19 78.2929H101.466V86.017H109.19V78.2929Z" fill="black"/>
<path d="M116.914 78.2929H109.19V86.017H116.914V78.2929Z" fill="black"/>
<path d="M132.362 78.2929H124.638V86.017H132.362V78.2929Z" fill="black"/>
<path d="M140.086 78.2929H132.362V86.017H140.086V78.2929Z" fill="black"/>
<path d="M147.81 78.2929H140.086V86.017H147.81V78.2929Z" fill="black"/>
<path d="M155.534 78.2929H147.81V86.017H155.534V78.2929Z" fill="black"/>
<path d="M186.431 78.2929H178.707V86.017H186.431V78.2929Z" fill="black"/>
<path d="M201.879 78.2929H194.155V86.017H201.879V78.2929Z" fill="black"/>
<path d="M217.328 78.2929H209.603V86.017H217.328V78.2929Z" fill="black"/>
<path d="M240.5 78.2929H232.776V86.017H240.5V78.2929Z" fill="black"/>
<path d="M24.2241 86.017H16.5V93.7411H24.2241V86.017Z" fill="black"/>
<path d="M47.3966 86.017H39.6724V93.7411H47.3966V86.017Z" fill="black"/>
<path d="M78.2931 86.017H70.569V93.7411H78.2931V86.017Z" fill="black"/>
<path d="M86.0172 86.017H78.2931V93.7411H86.0172V86.017Z" fill="black"/>
<path d="M93.7414 86.017H86.0172V93.7411H93.7414V86.017Z" fill="black"/>
<path d="M140.086 86.017H132.362V93.7411H140.086V86.017Z" fill="black"/>
<path d="M155.534 86.017H147.81V93.7411H155.534V86.017Z" fill="black"/>
<path d="M170.983 86.017H163.259V93.7411H170.983V86.017Z" fill="black"/>
<path d="M186.431 86.017H178.707V93.7411H186.431V86.017Z" fill="black"/>
<path d="M24.2241 93.7411H16.5V101.465H24.2241V93.7411Z" fill="black"/>
<path d="M47.3966 93.7411H39.6724V101.465H47.3966V93.7411Z" fill="black"/>
<path d="M55.1207 93.7411H47.3966V101.465H55.1207V93.7411Z" fill="black"/>
<path d="M70.569 93.7411H62.8448V101.465H70.569V93.7411Z" fill="black"/>
<path d="M78.2931 93.7411H70.569V101.465H78.2931V93.7411Z" fill="black"/>
<path d="M86.0172 93.7411H78.2931V101.465H86.0172V93.7411Z" fill="black"/>
<path d="M101.466 93.7411H93.7414V101.465H101.466V93.7411Z" fill="black"/>
<path d="M116.914 93.7411H109.19V101.465H116.914V93.7411Z" fill="black"/>
<path d="M140.086 93.7411H132.362V101.465H140.086V93.7411Z" fill="black"/>
<path d="M163.259 93.7411H155.534V101.465H163.259V93.7411Z" fill="black"/>
<path d="M178.707 93.7411H170.983V101.465H178.707V93.7411Z" fill="black"/>
<path d="M194.155 93.7411H186.431V101.465H194.155V93.7411Z" fill="black"/>
<path d="M209.603 93.7411H201.879V101.465H209.603V93.7411Z" fill="black"/>
<path d="M225.052 93.7411H217.328V101.465H225.052V93.7411Z" fill="black"/>
<path d="M240.5 93.7411H232.776V101.465H240.5V93.7411Z" fill="black"/>
<path d="M62.8448 101.465H55.1207V109.189H62.8448V101.465Z" fill="black"/>
<path d="M101.466 101.465H93.7414V109.189H101.466V101.465Z" fill="black"/>
<path d="M124.638 101.465H116.914V109.189H124.638V101.465Z" fill="black"/>
<path d="M132.362 101.465H124.638V109.189H132.362V101.465Z" fill="black"/>
<path d="M147.81 101.465H140.086V109.189H147.81V101.465Z" fill="black"/>
<path d="M163.259 101.465H155.534V109.189H163.259V101.465Z" fill="black"/>
<path d="M170.983 101.465H163.259V109.189H170.983V101.465Z" fill="black"/>
<path d="M178.707 101.465H170.983V109.189H178.707V101.465Z" fill="black"/>
<path d="M186.431 101.465H178.707V109.189H186.431V101.465Z" fill="black"/>
<path d="M201.879 101.465H194.155V109.189H201.879V101.465Z" fill="black"/>
<path d="M209.603 101.465H201.879V109.189H209.603V101.465Z" fill="black"/>
<path d="M39.6724 109.189H31.9483V116.914H39.6724V109.189Z" fill="black"/>
<path d="M70.569 109.189H62.8448V116.914H70.569V109.189Z" fill="black"/>
<path d="M86.0172 109.189H78.2931V116.914H86.0172V109.189Z" fill="black"/>
<path d="M93.7414 109.189H86.0172V116.914H93.7414V109.189Z" fill="black"/>
<path d="M101.466 109.189H93.7414V116.914H101.466V109.189Z" fill="black"/>
<path d="M109.19 109.189H101.466V116.914H109.19V109.189Z" fill="black"/>
<path d="M116.914 109.189H109.19V116.914H116.914V109.189Z" fill="black"/>
<path d="M132.362 109.189H124.638V116.914H132.362V109.189Z" fill="black"/>
<path d="M140.086 109.189H132.362V116.914H140.086V109.189Z" fill="black"/>
<path d="M163.259 109.189H155.534V116.914H163.259V109.189Z" fill="black"/>
<path d="M170.983 109.189H163.259V116.914H170.983V109.189Z" fill="black"/>
<path d="M194.155 109.189H186.431V116.914H194.155V109.189Z" fill="black"/>
<path d="M209.603 109.189H201.879V116.914H209.603V109.189Z" fill="black"/>
<path d="M225.052 109.189H217.328V116.914H225.052V109.189Z" fill="black"/>
<path d="M240.5 109.189H232.776V116.914H240.5V109.189Z" fill="black"/>
<path d="M24.2241 116.914H16.5V124.638H24.2241V116.914Z" fill="black"/>
<path d="M31.9483 116.914H24.2241V124.638H31.9483V116.914Z" fill="black"/>
<path d="M39.6724 116.914H31.9483V124.638H39.6724V116.914Z" fill="black"/>
<path d="M47.3966 116.914H39.6724V124.638H47.3966V116.914Z" fill="black"/>
<path d="M55.1207 116.914H47.3966V124.638H55.1207V116.914Z" fill="black"/>
<path d="M62.8448 116.914H55.1207V124.638H62.8448V116.914Z" fill="black"/>
<path d="M140.086 116.914H132.362V124.638H140.086V116.914Z" fill="black"/>
<path d="M147.81 116.914H140.086V124.638H147.81V116.914Z" fill="black"/>
<path d="M163.259 116.914H155.534V124.638H163.259V116.914Z" fill="black"/>
<path d="M170.983 116.914H163.259V124.638H170.983V116.914Z" fill="black"/>
<path d="M186.431 116.914H178.707V124.638H186.431V116.914Z" fill="black"/>
<path d="M194.155 116.914H186.431V124.638H194.155V116.914Z" fill="black"/>
<path d="M201.879 116.914H194.155V124.638H201.879V116.914Z" fill="black"/>
<path d="M232.776 116.914H225.052V124.638H232.776V116.914Z" fill="black"/>
<path d="M240.5 116.914H232.776V124.638H240.5V116.914Z" fill="black"/>
<path d="M31.9483 124.638H24.2241V132.362H31.9483V124.638Z" fill="black"/>
<path d="M47.3966 124.638H39.6724V132.362H47.3966V124.638Z" fill="black"/>
<path d="M55.1207 124.638H47.3966V132.362H55.1207V124.638Z" fill="black"/>
<path d="M62.8448 124.638H55.1207V132.362H62.8448V124.638Z" fill="black"/>
<path d="M70.569 124.638H62.8448V132.362H70.569V124.638Z" fill="black"/>
<path d="M78.2931 124.638H70.569V132.362H78.2931V124.638Z" fill="black"/>
<path d="M93.7414 124.638H86.0172V132.362H93.7414V124.638Z" fill="black"/>
<path d="M109.19 124.638H101.466V132.362H109.19V124.638Z" fill="black"/>
<path d="M140.086 124.638H132.362V132.362H140.086V124.638Z" fill="black"/>
<path d="M147.81 124.638H140.086V132.362H147.81V124.638Z" fill="black"/>
<path d="M178.707 124.638H170.983V132.362H178.707V124.638Z" fill="black"/>
<path d="M194.155 124.638H186.431V132.362H194.155V124.638Z" fill="black"/>
<path d="M209.603 124.638H201.879V132.362H209.603V124.638Z" fill="black"/>
<path d="M217.328 124.638H209.603V132.362H217.328V124.638Z" fill="black"/>
<path d="M240.5 124.638H232.776V132.362H240.5V124.638Z" fill="black"/>
<path d="M31.9483 132.362H24.2241V140.086H31.9483V132.362Z" fill="black"/>
<path d="M47.3966 132.362H39.6724V140.086H47.3966V132.362Z" fill="black"/>
<path d="M86.0172 132.362H78.2931V140.086H86.0172V132.362Z" fill="black"/>
<path d="M93.7414 132.362H86.0172V140.086H93.7414V132.362Z" fill="black"/>
<path d="M109.19 132.362H101.466V140.086H109.19V132.362Z" fill="black"/>
<path d="M124.638 132.362H116.914V140.086H124.638V132.362Z" fill="black"/>
<path d="M132.362 132.362H124.638V140.086H132.362V132.362Z" fill="black"/>
<path d="M147.81 132.362H140.086V140.086H147.81V132.362Z" fill="black"/>
<path d="M155.534 132.362H147.81V140.086H155.534V132.362Z" fill="black"/>
<path d="M170.983 132.362H163.259V140.086H170.983V132.362Z" fill="black"/>
<path d="M186.431 132.362H178.707V140.086H186.431V132.362Z" fill="black"/>
<path d="M194.155 132.362H186.431V140.086H194.155V132.362Z" fill="black"/>
<path d="M209.603 132.362H201.879V140.086H209.603V132.362Z" fill="black"/>
<path d="M217.328 132.362H209.603V140.086H217.328V132.362Z" fill="black"/>
<path d="M232.776 132.362H225.052V140.086H232.776V132.362Z" fill="black"/>
<path d="M24.2241 140.086H16.5V147.81H24.2241V140.086Z" fill="black"/>
<path d="M39.6724 140.086H31.9483V147.81H39.6724V140.086Z" fill="black"/>
<path d="M55.1207 140.086H47.3966V147.81H55.1207V140.086Z" fill="black"/>
<path d="M70.569 140.086H62.8448V147.81H70.569V140.086Z" fill="black"/>
<path d="M101.466 140.086H93.7414V147.81H101.466V140.086Z" fill="black"/>
<path d="M116.914 140.086H109.19V147.81H116.914V140.086Z" fill="black"/>
<path d="M132.362 140.086H124.638V147.81H132.362V140.086Z" fill="black"/>
<path d="M140.086 140.086H132.362V147.81H140.086V140.086Z" fill="black"/>
<path d="M147.81 140.086H140.086V147.81H147.81V140.086Z" fill="black"/>
<path d="M170.983 140.086H163.259V147.81H170.983V140.086Z" fill="black"/>
<path d="M178.707 140.086H170.983V147.81H178.707V140.086Z" fill="black"/>
<path d="M186.431 140.086H178.707V147.81H186.431V140.086Z" fill="black"/>
<path d="M201.879 140.086H194.155V147.81H201.879V140.086Z" fill="black"/>
<path d="M217.328 140.086H209.603V147.81H217.328V140.086Z" fill="black"/>
<path d="M31.9483 147.81H24.2241V155.534H31.9483V147.81Z" fill="black"/>
<path d="M39.6724 147.81H31.9483V155.534H39.6724V147.81Z" fill="black"/>
<path d="M78.2931 147.81H70.569V155.534H78.2931V147.81Z" fill="black"/>
<path d="M101.466 147.81H93.7414V155.534H101.466V147.81Z" fill="black"/>
<path d="M116.914 147.81H109.19V155.534H116.914V147.81Z" fill="black"/>
<path d="M124.638 147.81H116.914V155.534H124.638V147.81Z" fill="black"/>
<path d="M140.086 147.81H132.362V155.534H140.086V147.81Z" fill="black"/>
<path d="M147.81 147.81H140.086V155.534H147.81V147.81Z" fill="black"/>
<path d="M163.259 147.81H155.534V155.534H163.259V147.81Z" fill="black"/>
<path d="M170.983 147.81H163.259V155.534H170.983V147.81Z" fill="black"/>
<path d="M194.155 147.81H186.431V155.534H194.155V147.81Z" fill="black"/>
<path d="M24.2241 155.534H16.5V163.258H24.2241V155.534Z" fill="black"/>
<path d="M31.9483 155.534H24.2241V163.258H31.9483V155.534Z" fill="black"/>
<path d="M39.6724 155.534H31.9483V163.258H39.6724V155.534Z" fill="black"/>
<path d="M47.3966 155.534H39.6724V163.258H47.3966V155.534Z" fill="black"/>
<path d="M55.1207 155.534H47.3966V163.258H55.1207V155.534Z" fill="black"/>
<path d="M70.569 155.534H62.8448V163.258H70.569V155.534Z" fill="black"/>
<path d="M78.2931 155.534H70.569V163.258H78.2931V155.534Z" fill="black"/>
<path d="M86.0172 155.534H78.2931V163.258H86.0172V155.534Z" fill="black"/>
<path d="M124.638 155.534H116.914V163.258H124.638V155.534Z" fill="black"/>
<path d="M140.086 155.534H132.362V163.258H140.086V155.534Z" fill="black"/>
<path d="M155.534 155.534H147.81V163.258H155.534V155.534Z" fill="black"/>
<path d="M163.259 155.534H155.534V163.258H163.259V155.534Z" fill="black"/>
<path d="M170.983 155.534H163.259V163.258H170.983V155.534Z" fill="black"/>
<path d="M178.707 155.534H170.983V163.258H178.707V155.534Z" fill="black"/>
<path d="M201.879 155.534H194.155V163.258H201.879V155.534Z" fill="black"/>
<path d="M209.603 155.534H201.879V163.258H209.603V155.534Z" fill="black"/>
<path d="M24.2241 163.258H16.5V170.983H24.2241V163.258Z" fill="black"/>
<path d="M62.8448 163.258H55.1207V170.983H62.8448V163.258Z" fill="black"/>
<path d="M86.0172 163.258H78.2931V170.983H86.0172V163.258Z" fill="black"/>
<path d="M101.466 163.258H93.7414V170.983H101.466V163.258Z" fill="black"/>
<path d="M109.19 163.258H101.466V170.983H109.19V163.258Z" fill="black"/>
<path d="M124.638 163.258H116.914V170.983H124.638V163.258Z" fill="black"/>
<path d="M170.983 163.258H163.259V170.983H170.983V163.258Z" fill="black"/>
<path d="M217.328 163.258H209.603V170.983H217.328V163.258Z" fill="black"/>
<path d="M225.052 163.258H217.328V170.983H225.052V163.258Z" fill="black"/>
<path d="M232.776 163.258H225.052V170.983H232.776V163.258Z" fill="black"/>
<path d="M39.6724 170.983H31.9483V178.707H39.6724V170.983Z" fill="black"/>
<path d="M70.569 170.983H62.8448V178.707H70.569V170.983Z" fill="black"/>
<path d="M93.7414 170.983H86.0172V178.707H93.7414V170.983Z" fill="black"/>
<path d="M101.466 170.983H93.7414V178.707H101.466V170.983Z" fill="black"/>
<path d="M124.638 170.983H116.914V178.707H124.638V170.983Z" fill="black"/>
<path d="M140.086 170.983H132.362V178.707H140.086V170.983Z" fill="black"/>
<path d="M147.81 170.983H140.086V178.707H147.81V170.983Z" fill="black"/>
<path d="M155.534 170.983H147.81V178.707H155.534V170.983Z" fill="black"/>
<path d="M178.707 170.983H170.983V178.707H178.707V170.983Z" fill="black"/>
<path d="M186.431 170.983H178.707V178.707H186.431V170.983Z" fill="black"/>
<path d="M194.155 170.983H186.431V178.707H194.155V170.983Z" fill="black"/>
<path d="M201.879 170.983H194.155V178.707H201.879V170.983Z" fill="black"/>
<path d="M209.603 170.983H201.879V178.707H209.603V170.983Z" fill="black"/>
<path d="M232.776 170.983H225.052V178.707H232.776V170.983Z" fill="black"/>
<path d="M240.5 170.983H232.776V178.707H240.5V170.983Z" fill="black"/>
<path d="M86.0172 178.707H78.2931V186.431H86.0172V178.707Z" fill="black"/>
<path d="M116.914 178.707H109.19V186.431H116.914V178.707Z" fill="black"/>
<path d="M132.362 178.707H124.638V186.431H132.362V178.707Z" fill="black"/>
<path d="M140.086 178.707H132.362V186.431H140.086V178.707Z" fill="black"/>
<path d="M147.81 178.707H140.086V186.431H147.81V178.707Z" fill="black"/>
<path d="M155.534 178.707H147.81V186.431H155.534V178.707Z" fill="black"/>
<path d="M163.259 178.707H155.534V186.431H163.259V178.707Z" fill="black"/>
<path d="M178.707 178.707H170.983V186.431H178.707V178.707Z" fill="black"/>
<path d="M209.603 178.707H201.879V186.431H209.603V178.707Z" fill="black"/>
<path d="M225.052 178.707H217.328V186.431H225.052V178.707Z" fill="black"/>
<path d="M232.776 178.707H225.052V186.431H232.776V178.707Z" fill="black"/>
<path d="M24.2241 186.431H16.5V194.155H24.2241V186.431Z" fill="black"/>
<path d="M31.9483 186.431H24.2241V194.155H31.9483V186.431Z" fill="black"/>
<path d="M39.6724 186.431H31.9483V194.155H39.6724V186.431Z" fill="black"/>
<path d="M47.3966 186.431H39.6724V194.155H47.3966V186.431Z" fill="black"/>
<path d="M55.1207 186.431H47.3966V194.155H55.1207V186.431Z" fill="black"/>
<path d="M62.8448 186.431H55.1207V194.155H62.8448V186.431Z" fill="black"/>
<path d="M70.569 186.431H62.8448V194.155H70.569V186.431Z" fill="black"/>
<path d="M93.7414 186.431H86.0172V194.155H93.7414V186.431Z" fill="black"/>
<path d="M109.19 186.431H101.466V194.155H109.19V186.431Z" fill="black"/>
<path d="M116.914 186.431H109.19V194.155H116.914V186.431Z" fill="black"/>
<path d="M132.362 186.431H124.638V194.155H132.362V186.431Z" fill="black"/>
<path d="M155.534 186.431H147.81V194.155H155.534V186.431Z" fill="black"/>
<path d="M178.707 186.431H170.983V194.155H178.707V186.431Z" fill="black"/>
<path d="M194.155 186.431H186.431V194.155H194.155V186.431Z" fill="black"/>
<path d="M209.603 186.431H201.879V194.155H209.603V186.431Z" fill="black"/>
<path d="M217.328 186.431H209.603V194.155H217.328V186.431Z" fill="black"/>
<path d="M240.5 186.431H232.776V194.155H240.5V186.431Z" fill="black"/>
<path d="M24.2241 194.155H16.5V201.879H24.2241V194.155Z" fill="black"/>
<path d="M70.569 194.155H62.8448V201.879H70.569V194.155Z" fill="black"/>
<path d="M86.0172 194.155H78.2931V201.879H86.0172V194.155Z" fill="black"/>
<path d="M101.466 194.155H93.7414V201.879H101.466V194.155Z" fill="black"/>
<path d="M109.19 194.155H101.466V201.879H109.19V194.155Z" fill="black"/>
<path d="M124.638 194.155H116.914V201.879H124.638V194.155Z" fill="black"/>
<path d="M155.534 194.155H147.81V201.879H155.534V194.155Z" fill="black"/>
<path d="M163.259 194.155H155.534V201.879H163.259V194.155Z" fill="black"/>
<path d="M170.983 194.155H163.259V201.879H170.983V194.155Z" fill="black"/>
<path d="M178.707 194.155H170.983V201.879H178.707V194.155Z" fill="black"/>
<path d="M209.603 194.155H201.879V201.879H209.603V194.155Z" fill="black"/>
<path d="M217.328 194.155H209.603V201.879H217.328V194.155Z" fill="black"/>
<path d="M232.776 194.155H225.052V201.879H232.776V194.155Z" fill="black"/>
<path d="M24.2241 201.879H16.5V209.603H24.2241V201.879Z" fill="black"/>
<path d="M39.6724 201.879H31.9483V209.603H39.6724V201.879Z" fill="black"/>
<path d="M47.3966 201.879H39.6724V209.603H47.3966V201.879Z" fill="black"/>
<path d="M55.1207 201.879H47.3966V209.603H55.1207V201.879Z" fill="black"/>
<path d="M70.569 201.879H62.8448V209.603H70.569V201.879Z" fill="black"/>
<path d="M101.466 201.879H93.7414V209.603H101.466V201.879Z" fill="black"/>
<path d="M109.19 201.879H101.466V209.603H109.19V201.879Z" fill="black"/>
<path d="M132.362 201.879H124.638V209.603H132.362V201.879Z" fill="black"/>
<path d="M140.086 201.879H132.362V209.603H140.086V201.879Z" fill="black"/>
<path d="M163.259 201.879H155.534V209.603H163.259V201.879Z" fill="black"/>
<path d="M170.983 201.879H163.259V209.603H170.983V201.879Z" fill="black"/>
<path d="M178.707 201.879H170.983V209.603H178.707V201.879Z" fill="black"/>
<path d="M186.431 201.879H178.707V209.603H186.431V201.879Z" fill="black"/>
<path d="M194.155 201.879H186.431V209.603H194.155V201.879Z" fill="black"/>
<path d="M201.879 201.879H194.155V209.603H201.879V201.879Z" fill="black"/>
<path d="M209.603 201.879H201.879V209.603H209.603V201.879Z" fill="black"/>
<path d="M217.328 201.879H209.603V209.603H217.328V201.879Z" fill="black"/>
<path d="M225.052 201.879H217.328V209.603H225.052V201.879Z" fill="black"/>
<path d="M232.776 201.879H225.052V209.603H232.776V201.879Z" fill="black"/>
<path d="M240.5 201.879H232.776V209.603H240.5V201.879Z" fill="black"/>
<path d="M24.2241 209.603H16.5V217.327H24.2241V209.603Z" fill="black"/>
<path d="M39.6724 209.603H31.9483V217.327H39.6724V209.603Z" fill="black"/>
<path d="M47.3966 209.603H39.6724V217.327H47.3966V209.603Z" fill="black"/>
<path d="M55.1207 209.603H47.3966V217.327H55.1207V209.603Z" fill="black"/>
<path d="M70.569 209.603H62.8448V217.327H70.569V209.603Z" fill="black"/>
<path d="M93.7414 209.603H86.0172V217.327H93.7414V209.603Z" fill="black"/>
<path d="M101.466 209.603H93.7414V217.327H101.466V209.603Z" fill="black"/>
<path d="M109.19 209.603H101.466V217.327H109.19V209.603Z" fill="black"/>
<path d="M116.914 209.603H109.19V217.327H116.914V209.603Z" fill="black"/>
<path d="M140.086 209.603H132.362V217.327H140.086V209.603Z" fill="black"/>
<path d="M147.81 209.603H140.086V217.327H147.81V209.603Z" fill="black"/>
<path d="M163.259 209.603H155.534V217.327H163.259V209.603Z" fill="black"/>
<path d="M209.603 209.603H201.879V217.327H209.603V209.603Z" fill="black"/>
<path d="M217.328 209.603H209.603V217.327H217.328V209.603Z" fill="black"/>
<path d="M24.2241 217.327H16.5V225.051H24.2241V217.327Z" fill="black"/>
<path d="M39.6724 217.327H31.9483V225.051H39.6724V217.327Z" fill="black"/>
<path d="M47.3966 217.327H39.6724V225.051H47.3966V217.327Z" fill="black"/>
<path d="M55.1207 217.327H47.3966V225.051H55.1207V217.327Z" fill="black"/>
<path d="M70.569 217.327H62.8448V225.051H70.569V217.327Z" fill="black"/>
<path d="M101.466 217.327H93.7414V225.051H101.466V217.327Z" fill="black"/>
<path d="M109.19 217.327H101.466V225.051H109.19V217.327Z" fill="black"/>
<path d="M124.638 217.327H116.914V225.051H124.638V217.327Z" fill="black"/>
<path d="M132.362 217.327H124.638V225.051H132.362V217.327Z" fill="black"/>
<path d="M178.707 217.327H170.983V225.051H178.707V217.327Z" fill="black"/>
<path d="M186.431 217.327H178.707V225.051H186.431V217.327Z" fill="black"/>
<path d="M201.879 217.327H194.155V225.051H201.879V217.327Z" fill="black"/>
<path d="M24.2241 225.051H16.5V232.776H24.2241V225.051Z" fill="black"/>
<path d="M70.569 225.051H62.8448V232.776H70.569V225.051Z" fill="black"/>
<path d="M101.466 225.051H93.7414V232.776H101.466V225.051Z" fill="black"/>
<path d="M109.19 225.051H101.466V232.776H109.19V225.051Z" fill="black"/>
<path d="M116.914 225.051H109.19V232.776H116.914V225.051Z" fill="black"/>
<path d="M132.362 225.051H124.638V232.776H132.362V225.051Z" fill="black"/>
<path d="M140.086 225.051H132.362V232.776H140.086V225.051Z" fill="black"/>
<path d="M147.81 225.051H140.086V232.776H147.81V225.051Z" fill="black"/>
<path d="M163.259 225.051H155.534V232.776H163.259V225.051Z" fill="black"/>
<path d="M170.983 225.051H163.259V232.776H170.983V225.051Z" fill="black"/>
<path d="M186.431 225.051H178.707V232.776H186.431V225.051Z" fill="black"/>
<path d="M194.155 225.051H186.431V232.776H194.155V225.051Z" fill="black"/>
<path d="M201.879 225.051H194.155V232.776H201.879V225.051Z" fill="black"/>
<path d="M209.603 225.051H201.879V232.776H209.603V225.051Z" fill="black"/>
<path d="M232.776 225.051H225.052V232.776H232.776V225.051Z" fill="black"/>
<path d="M240.5 225.051H232.776V232.776H240.5V225.051Z" fill="black"/>
<path d="M24.2241 232.776H16.5V240.5H24.2241V232.776Z" fill="black"/>
<path d="M31.9483 232.776H24.2241V240.5H31.9483V232.776Z" fill="black"/>
<path d="M39.6724 232.776H31.9483V240.5H39.6724V232.776Z" fill="black"/>
<path d="M47.3966 232.776H39.6724V240.5H47.3966V232.776Z" fill="black"/>
<path d="M55.1207 232.776H47.3966V240.5H55.1207V232.776Z" fill="black"/>
<path d="M62.8448 232.776H55.1207V240.5H62.8448V232.776Z" fill="black"/>
<path d="M70.569 232.776H62.8448V240.5H70.569V232.776Z" fill="black"/>
<path d="M93.7414 232.776H86.0172V240.5H93.7414V232.776Z" fill="black"/>
<path d="M116.914 232.776H109.19V240.5H116.914V232.776Z" fill="black"/>
<path d="M132.362 232.776H124.638V240.5H132.362V232.776Z" fill="black"/>
<path d="M155.534 232.776H147.81V240.5H155.534V232.776Z" fill="black"/>
<path d="M163.259 232.776H155.534V240.5H163.259V232.776Z" fill="black"/>
<path d="M170.983 232.776H163.259V240.5H170.983V232.776Z" fill="black"/>
<path d="M186.431 232.776H178.707V240.5H186.431V232.776Z" fill="black"/>
<path d="M217.328 232.776H209.603V240.5H217.328V232.776Z" fill="black"/>
<path d="M225.052 232.776H217.328V240.5H225.052V232.776Z" fill="black"/>
</g>
<defs>
<clipPath id="clip0_5301_17482">
<rect width="256" height="256" fill="white" transform="translate(0.5 0.499756)"/>
</clipPath>
</defs>
</svg>
